<svg width="29" height="29" viewBox="0 0 29 29" fill="none" xmlns="http://www.w3.org/2000/svg">
<g clip-path="url(#clip0_88_146)">
<path fill-rule="evenodd" clip-rule="evenodd" d="M0.608154 14.2823C0.608154 21.2804 5.69443 27.0996 12.3466 28.2796V18.1133H8.82507V14.2038H12.3466V11.0754C12.3466 7.55645 14.6156 5.60225 17.8249 5.60225C18.8415 5.60225 19.9379 5.75826 20.9544 5.91427V9.51182H19.1549C17.4329 9.51182 17.042 10.3716 17.042 11.4672V14.2038H20.7983L20.1726 18.1133H17.042V28.2796C23.6942 27.0996 28.7804 21.2816 28.7804 14.2823C28.7804 6.49724 22.4417 0.12793 14.6943 0.12793C6.94692 0.12793 0.608154 6.49724 0.608154 14.2823Z" fill="white"/>
</g>
<defs>
<clipPath id="clip0_88_146">
<rect width="28.1723" height="28.1517" fill="white" transform="translate(0.608154 0.12793)"/>
</clipPath>
</defs>
</svg>
