<svg width="36" height="36" viewBox="0 0 36 36" fill="none" xmlns="http://www.w3.org/2000/svg">
<path d="M18.2972 12.9561C15.7842 12.9561 13.7334 15.0054 13.7334 17.5165C13.7334 20.0277 15.7842 22.077 18.2972 22.077C20.8102 22.077 22.861 20.0277 22.861 17.5165C22.861 15.0054 20.8102 12.9561 18.2972 12.9561ZM31.9853 17.5165C31.9853 15.628 32.0024 13.7566 31.8962 11.8715C31.7901 9.68196 31.2902 7.73872 29.6879 6.13759C28.0822 4.53304 26.141 4.03697 23.9498 3.93091C22.0599 3.82485 20.1871 3.84196 18.3007 3.84196C16.4108 3.84196 14.538 3.82485 12.6515 3.93091C10.4604 4.03697 8.51568 4.53647 6.91338 6.13759C5.30766 7.74214 4.81122 9.68196 4.70509 11.8715C4.59895 13.76 4.61607 15.6314 4.61607 17.5165C4.61607 19.4016 4.59895 21.2764 4.70509 23.1615C4.81122 25.3511 5.31108 27.2943 6.91338 28.8955C8.51911 30.5 10.4604 30.9961 12.6515 31.1022C14.5414 31.2082 16.4142 31.1911 18.3007 31.1911C20.1905 31.1911 22.0633 31.2082 23.9498 31.1022C26.141 30.9961 28.0856 30.4966 29.6879 28.8955C31.2937 27.2909 31.7901 25.3511 31.8962 23.1615C32.0058 21.2764 31.9853 19.405 31.9853 17.5165ZM18.2972 24.5334C14.4113 24.5334 11.2752 21.3996 11.2752 17.5165C11.2752 13.6335 14.4113 10.4996 18.2972 10.4996C22.1832 10.4996 25.3193 13.6335 25.3193 17.5165C25.3193 21.3996 22.1832 24.5334 18.2972 24.5334ZM25.6069 11.851C24.6996 11.851 23.9669 11.1189 23.9669 10.2123C23.9669 9.30563 24.6996 8.57349 25.6069 8.57349C26.5142 8.57349 27.2468 9.30563 27.2468 10.2123C27.2471 10.4275 27.2049 10.6408 27.1225 10.8397C27.0402 11.0386 26.9194 11.2194 26.7671 11.3716C26.6148 11.5239 26.4339 11.6446 26.2348 11.7268C26.0357 11.8091 25.8223 11.8513 25.6069 11.851Z" fill="white"/>
</svg>
