<svg width="32" height="33" viewBox="0 0 32 33" fill="none" xmlns="http://www.w3.org/2000/svg">
<path d="M16.2132 2.83167C8.65049 2.83167 2.51837 8.95929 2.51837 16.5165C2.51837 24.0737 8.65049 30.2013 16.2132 30.2013C23.776 30.2013 29.9081 24.0737 29.9081 16.5165C29.9081 8.95929 23.776 2.83167 16.2132 2.83167ZM22.7947 13.1472C22.8039 13.2908 22.8039 13.4405 22.8039 13.5871C22.8039 18.0713 19.3863 23.2367 13.1411 23.2367C11.2152 23.2367 9.43 22.6777 7.92601 21.7155C8.20113 21.7461 8.46402 21.7583 8.74525 21.7583C10.3348 21.7583 11.796 21.2207 12.9607 20.3104C11.4689 20.2798 10.2156 19.3023 9.78765 17.9583C10.3104 18.0347 10.7811 18.0347 11.3192 17.8972C10.551 17.7413 9.86064 17.3244 9.36524 16.7174C8.86984 16.1105 8.60001 15.3509 8.60158 14.5676V14.5249C9.05094 14.7784 9.57978 14.9342 10.1331 14.9556C9.66795 14.6458 9.2865 14.2262 9.02255 13.7338C8.75859 13.2415 8.6203 12.6916 8.61992 12.1331C8.61992 11.5008 8.78499 10.9234 9.08151 10.4225C9.93409 11.4712 10.998 12.329 12.204 12.94C13.4101 13.551 14.7313 13.9016 16.0818 13.9689C15.6019 11.6627 17.3259 9.79627 19.3985 9.79627C20.3767 9.79627 21.2571 10.2056 21.8776 10.8654C22.6449 10.7218 23.3786 10.4347 24.0328 10.0498C23.779 10.8348 23.2471 11.4977 22.541 11.9162C23.2257 11.8429 23.886 11.6535 24.4974 11.3877C24.0358 12.0659 23.4581 12.6676 22.7947 13.1472Z" fill="white"/>
</svg>
